HIERARCHY
ROOT Pelvis
{
	OFFSET 0.000000 0.941512 0.000000
	CHANNELS 6 Xposition Yposition Zposition Zrotation Yrotation Xrotation 
	JOINT Pelvis_L_Hip
	{
		OFFSET 0.000000 0.000000 0.000000
		CHANNELS 3 Zrotation Yrotation Xrotation
		JOINT L_Hip
		{
			OFFSET 0.062321 -0.080322 -0.016990
			CHANNELS 3 Zrotation Yrotation Xrotation
			JOINT L_Knee
			{
				OFFSET 0.093051 -0.381305 -0.029784
				CHANNELS 3 Zrotation Yrotation Xrotation
				JOINT L_Ankle
				{
					OFFSET -0.010371 -0.431000 -0.033614
					CHANNELS 3 Zrotation Yrotation Xrotation
					End Site #name: L_Foot
					{
						OFFSET 0.069299 -0.038670 0.119418
					}
				}
			}
		}
	}
	JOINT Pelvis_R_Hip
	{
		OFFSET 0.000000 0.000000 0.000000
		CHANNELS 3 Zrotation Yrotation Xrotation
		JOINT R_Hip
		{
			OFFSET -0.055334 -0.094904 -0.002373
			CHANNELS 3 Zrotation Yrotation Xrotation
			JOINT R_Knee
			{
				OFFSET -0.064207 -0.384370 -0.019592
				CHANNELS 3 Zrotation Yrotation Xrotation
				JOINT R_Ankle
				{
					OFFSET 0.025418 -0.419734 -0.065953
					CHANNELS 3 Zrotation Yrotation Xrotation
					End Site #name: R_Foot
					{
						OFFSET -0.057233 -0.039888 0.132134
					}
				}
			}
		}
	}
	JOINT Pelvis_Spine1
	{
		OFFSET 0.000000 0.000000 0.000000
		CHANNELS 3 Zrotation Yrotation Xrotation
		JOINT Spine1
		{
			OFFSET -0.005562 0.124093 -0.043360
			CHANNELS 3 Zrotation Yrotation Xrotation
			JOINT Spine2
			{
				OFFSET 0.012244 0.139499 0.029894
				CHANNELS 3 Zrotation Yrotation Xrotation
				JOINT Spine3
				{
					OFFSET -0.002556 0.056561 0.009225
					CHANNELS 3 Zrotation Yrotation Xrotation
					JOINT Spine3_Neck
					{
						OFFSET 0.000000 0.000000 0.000000
						CHANNELS 3 Zrotation Yrotation Xrotation
						JOINT Neck
						{
							OFFSET -0.005205 0.217920 -0.024551
							CHANNELS 3 Zrotation Yrotation Xrotation
							End Site #name: Head
							{
								OFFSET 0.002365 0.091850 0.046637
							}
						}
					}
					JOINT Spine3_L_Collar
					{
						OFFSET 0.000000 0.000000 0.000000
						CHANNELS 3 Zrotation Yrotation Xrotation
						JOINT L_Collar
						{
							OFFSET 0.072225 0.116603 -0.009480
							CHANNELS 3 Zrotation Yrotation Xrotation
							JOINT L_Shoulder
							{
								OFFSET 0.115937 -0.058643 -0.021018
								CHANNELS 3 Zrotation Yrotation Xrotation
								JOINT L_Elbow
								{
									OFFSET 0.021994 -0.254722 -0.024492
									CHANNELS 3 Zrotation Yrotation Xrotation
									End Site #name: L_Wrist
									{
										OFFSET 0.048810 -0.240214 0.103329
									}
								}
							}
						}
					}
					JOINT Spine3_R_Collar
					{
						OFFSET 0.000000 0.000000 0.000000
						CHANNELS 3 Zrotation Yrotation Xrotation
						JOINT R_Collar
						{
							OFFSET -0.073372 0.120704 -0.024611
							CHANNELS 3 Zrotation Yrotation Xrotation
							JOINT R_Shoulder
							{
								OFFSET -0.108089 -0.054969 -0.020504
								CHANNELS 3 Zrotation Yrotation Xrotation
								JOINT R_Elbow
								{
									OFFSET -0.033684 -0.260739 0.009889
									CHANNELS 3 Zrotation Yrotation Xrotation
									End Site #name: R_Wrist
									{
										OFFSET -0.067980 -0.232763 0.118463
									}
								}
							}
						}
					}
				}
			}
		}
	}
}
MOTION
Frames: 14
Frame Time: 0.041667
0.000000 0.962526 0.000000 -4.550589 -2.083072 5.081839 0.000000 0.000000 0.000000 -0.153226 -1.272554 -5.300246 3.461683 -0.343901 1.194188 -2.174627 1.511052 4.746117 0.000000 0.000000 0.000000 4.215640 0.211185 -2.285550 -1.073359 -0.450453 -8.946798 6.168928 -1.054230 14.259488 0.000000 0.000000 0.000000 3.924214 -0.520317 -2.943689 -2.019938 0.233929 -1.502424 3.143893 2.096906 0.198777 0.000000 0.000000 0.000000 -1.550375 0.791274 -0.364935 0.000000 0.000000 0.000000 9.956973 -2.603435 0.277732 -14.186515 1.512253 0.547130 -2.138151 -0.222011 3.136662 0.000000 0.000000 0.000000 -17.130031 6.232350 -0.909271 19.189627 -2.380250 10.239495 -2.021531 -1.877730 3.226181 
0.000869 0.962282 -0.000210 -4.594883 -2.113498 5.072378 0.000000 0.000000 0.000000 -0.133459 -1.291506 -5.376254 3.449027 -0.347483 1.282478 -2.187804 1.551553 4.796343 0.000000 0.000000 0.000000 4.213640 0.222109 -2.338282 -1.062048 -0.444189 -8.840585 6.148326 -1.047718 14.205616 0.000000 0.000000 0.000000 4.006218 -0.534580 -2.959826 -2.023665 0.237801 -1.449001 3.149041 2.157797 0.276105 0.000000 0.000000 0.000000 -1.650106 0.840439 -0.177283 0.000000 0.000000 0.000000 10.037878 -2.632538 0.275371 -14.050450 1.522008 0.657530 -2.301008 -0.341013 2.896347 0.000000 0.000000 0.000000 -17.154659 6.411862 -1.039312 19.035800 -2.377180 10.247800 -1.949088 -1.895099 3.421086 
0.001908 0.962268 -0.000424 -4.602258 -2.142503 5.024394 0.000000 0.000000 0.000000 -0.168740 -1.289541 -5.372785 3.400331 -0.345912 1.333108 -2.155985 1.590627 4.766266 0.000000 0.000000 0.000000 4.168118 0.221294 -2.324491 -1.081115 -0.438482 -8.777904 6.147468 -1.032770 14.186236 0.000000 0.000000 0.000000 4.003608 -0.535976 -2.942886 -1.992603 0.237099 -1.384929 3.154729 2.175702 0.308003 0.000000 0.000000 0.000000 -1.666984 0.846299 0.202213 0.000000 0.000000 0.000000 10.148036 -2.649293 0.284364 -13.902989 1.536346 0.793588 -2.385068 -0.413664 2.724372 0.000000 0.000000 0.000000 -17.247182 6.523849 -1.106422 18.985207 -2.386485 10.290332 -1.954174 -1.900943 3.435502 
0.002944 0.962202 -0.000731 -4.620271 -2.207870 4.987825 0.000000 0.000000 0.000000 -0.215272 -1.279069 -5.335482 3.379564 -0.343195 1.314408 -2.123241 1.661585 4.756601 0.000000 0.000000 0.000000 4.134615 0.224539 -2.333374 -1.115566 -0.432352 -8.727311 6.170486 -1.000426 14.194908 0.000000 0.000000 0.000000 4.035037 -0.550080 -2.879804 -1.979340 0.235508 -1.378026 3.158495 2.187377 0.334185 0.000000 0.000000 0.000000 -1.665168 0.843274 0.511540 0.000000 0.000000 0.000000 10.221869 -2.671189 0.280949 -13.797624 1.544548 0.883440 -2.340020 -0.386981 2.760093 0.000000 0.000000 0.000000 -17.364070 6.607919 -1.147679 18.945432 -2.400211 10.338078 -1.976830 -1.863688 3.252544 
0.003921 0.962132 -0.001099 -4.667979 -2.309922 4.980912 0.000000 0.000000 0.000000 -0.245343 -1.275935 -5.326360 3.394046 -0.344247 1.304433 -2.077463 1.755501 4.740787 0.000000 0.000000 0.000000 4.121725 0.237321 -2.394318 -1.125368 -0.426706 -8.656437 6.208246 -0.945262 14.207997 0.000000 0.000000 0.000000 4.107510 -0.575832 -2.791385 -1.977448 0.232398 -1.423365 3.159894 2.191541 0.353940 0.000000 0.000000 0.000000 -1.663754 0.841268 0.733646 0.000000 0.000000 0.000000 10.301572 -2.707355 0.266708 -13.704125 1.557735 0.988314 -2.335660 -0.367116 2.840686 0.000000 0.000000 0.000000 -17.515134 6.702339 -1.186691 18.933309 -2.395629 10.328815 -1.978086 -1.828073 3.113847 
0.004789 0.962086 -0.001341 -4.720814 -2.401819 5.006567 0.000000 0.000000 0.000000 -0.253157 -1.286727 -5.371952 3.399408 -0.347166 1.345171 -2.030907 1.837584 4.715760 0.000000 0.000000 0.000000 4.135724 0.247368 -2.448349 -1.154309 -0.424222 -8.654598 6.251930 -0.897608 14.241381 0.000000 0.000000 0.000000 4.140924 -0.585655 -2.770781 -1.965080 0.228835 -1.450742 3.164552 2.166424 0.370174 0.000000 0.000000 0.000000 -1.649991 0.832751 0.989519 0.000000 0.000000 0.000000 10.431267 -2.751984 0.255313 -13.649080 1.576420 1.099960 -2.413781 -0.395218 2.858060 0.000000 0.000000 0.000000 -17.617846 6.764844 -1.204952 18.920606 -2.370366 10.260829 -2.017367 -1.841902 3.098409 
0.005588 0.961997 -0.001454 -4.744513 -2.469171 5.055570 0.000000 0.000000 0.000000 -0.280149 -1.302318 -5.440239 3.384049 -0.348166 1.384479 -1.983967 1.925229 4.692290 0.000000 0.000000 0.000000 4.129663 0.250244 -2.463664 -1.197830 -0.427738 -8.757688 6.305860 -0.869665 14.317358 0.000000 0.000000 0.000000 4.063626 -0.561330 -2.847465 -1.952335 0.227304 -1.443810 3.175163 2.127299 0.417976 0.000000 0.000000 0.000000 -1.510038 0.758665 1.229151 0.000000 0.000000 0.000000 10.545487 -2.785781 0.247470 -13.601083 1.578448 1.116520 -2.504137 -0.439053 2.827933 0.000000 0.000000 0.000000 -17.655524 6.737163 -1.172416 18.927823 -2.335404 10.131866 -2.028293 -1.842727 3.079481 
0.006412 0.961882 -0.001420 -4.777529 -2.491375 5.092258 0.000000 0.000000 0.000000 -0.286883 -1.312546 -5.483832 3.356590 -0.346125 1.392415 -1.955834 1.984300 4.681543 0.000000 0.000000 0.000000 4.115502 0.246846 -2.446424 -1.212016 -0.434717 -8.877258 6.356883 -0.846380 14.399471 0.000000 0.000000 0.000000 3.911715 -0.515120 -2.980330 -1.951906 0.225695 -1.469055 3.175355 2.095007 0.498042 0.000000 0.000000 0.000000 -1.210117 0.599283 1.510262 0.000000 0.000000 0.000000 10.593921 -2.829760 0.224343 -13.516470 1.560570 1.064593 -2.599961 -0.488410 2.777505 0.000000 0.000000 0.000000 -17.727947 6.662579 -1.099805 19.047226 -2.323782 10.064574 -2.043701 -1.817029 2.954126 
0.007346 0.961837 -0.001306 -4.866917 -2.499894 5.084684 0.000000 0.000000 0.000000 -0.244793 -1.305463 -5.449238 3.348624 -0.343131 1.349477 -1.945514 2.008638 4.679188 0.000000 0.000000 0.000000 4.155519 0.243340 -2.436746 -1.211311 -0.434566 -8.874350 6.378818 -0.812216 14.413865 0.000000 0.000000 0.000000 3.763577 -0.474854 -3.070922 -1.953663 0.221670 -1.538960 3.157490 2.094054 0.537506 0.000000 0.000000 0.000000 -0.864996 0.411975 1.902127 0.000000 0.000000 0.000000 10.604905 -2.880204 0.196758 -13.433843 1.544421 1.041765 -2.674608 -0.551198 2.633117 0.000000 0.000000 0.000000 -17.848152 6.592770 -1.034476 19.181725 -2.354105 10.138069 -2.082291 -1.780249 2.744152 
0.008297 0.961848 -0.001281 -4.967358 -2.559895 5.040693 0.000000 0.000000 0.000000 -0.212495 -1.278794 -5.334166 3.364312 -0.340041 1.259088 -1.919900 2.044885 4.659571 0.000000 0.000000 0.000000 4.216596 0.243754 -2.449721 -1.229731 -0.425924 -8.768553 6.397452 -0.771595 14.406768 0.000000 0.000000 0.000000 3.610129 -0.444297 -3.073509 -1.969033 0.219746 -1.607576 3.178371 2.106253 0.548223 0.000000 0.000000 0.000000 -0.634698 0.285094 2.190008 0.000000 0.000000 0.000000 10.576099 -2.841823 0.212673 -13.377129 1.531687 0.993975 -2.821333 -0.676295 2.348927 0.000000 0.000000 0.000000 -17.963680 6.652762 -1.055237 19.272962 -2.374596 10.187293 -2.038253 -1.738210 2.662449 
0.009412 0.961854 -0.001393 -5.037605 -2.650754 4.987973 0.000000 0.000000 0.000000 -0.235534 -1.251326 -5.222874 3.395114 -0.338693 1.180209 -1.885191 2.092195 4.632530 0.000000 0.000000 0.000000 4.229439 0.254168 -2.502269 -1.250563 -0.412292 -8.593177 6.419928 -0.723663 14.396126 0.000000 0.000000 0.000000 3.445691 -0.411896 -3.074727 -1.978476 0.222545 -1.584334 3.229631 2.106780 0.532494 0.000000 0.000000 0.000000 -0.551716 0.238156 2.364437 0.000000 0.000000 0.000000 10.617038 -2.896037 0.181897 -13.407819 1.530626 0.967556 -3.076172 -0.851322 2.046422 0.000000 0.000000 0.000000 -18.022457 6.741222 -1.105454 19.293865 -2.360042 10.139273 -1.972101 -1.713805 2.689194 
0.010951 0.961824 -0.001488 -5.133113 -2.696452 4.908844 0.000000 0.000000 0.000000 -0.247458 -1.215318 -5.075553 3.416963 -0.335158 1.073312 -1.876578 2.095200 4.620694 0.000000 0.000000 0.000000 4.231851 0.252831 -2.494122 -1.246166 -0.403822 -8.464009 6.435743 -0.682189 14.385896 0.000000 0.000000 0.000000 3.369217 -0.395054 -3.087437 -1.973839 0.223792 -1.552570 3.255825 2.107304 0.585970 0.000000 0.000000 0.000000 -0.524039 0.221157 2.501165 0.000000 0.000000 0.000000 10.662078 -3.028480 0.103496 -13.506003 1.528134 0.895775 -3.277832 -0.991042 1.804563 0.000000 0.000000 0.000000 -18.063961 6.828429 -1.160204 19.302509 -2.341637 10.085374 -2.098253 -1.745584 2.585292 
0.012797 0.961806 -0.001594 -5.234493 -2.711517 4.827928 0.000000 0.000000 0.000000 -0.267457 -1.177275 -4.921129 3.421711 -0.328151 0.937251 -1.876199 2.084930 4.613585 0.000000 0.000000 0.000000 4.217544 0.246288 -2.457403 -1.251306 -0.398527 -8.392494 6.463660 -0.651072 14.415193 0.000000 0.000000 0.000000 3.331112 -0.389280 -3.068921 -1.960239 0.219817 -1.584547 3.263124 2.095634 0.659845 0.000000 0.000000 0.000000 -0.427872 0.167554 2.615622 0.000000 0.000000 0.000000 10.605294 -3.098048 0.050175 -13.512374 1.519574 0.844634 -3.405949 -1.089829 1.612739 0.000000 0.000000 0.000000 -18.095732 6.861454 -1.177435 19.284541 -2.311468 9.973098 -2.138906 -1.736396 2.473254 
0.015037 0.961744 -0.001927 -5.332128 -2.711120 4.799636 0.000000 0.000000 0.000000 -0.310077 -1.162559 -4.868703 3.434756 -0.325430 0.858771 -1.870957 2.086191 4.604432 0.000000 0.000000 0.000000 4.206220 0.257610 -2.508834 -1.307125 -0.387476 -8.296800 6.477912 -0.646693 14.441761 0.000000 0.000000 0.000000 3.324481 -0.391544 -3.036783 -1.923071 0.211969 -1.623127 3.281795 2.085838 0.642573 0.000000 0.000000 0.000000 -0.365641 0.129668 2.833629 0.000000 0.000000 0.000000 10.630720 -3.162981 0.013095 -13.594217 1.531036 0.860496 -3.548205 -1.181956 1.476752 0.000000 0.000000 0.000000 -18.232687 6.907288 -1.191216 19.346072 -2.281212 9.870578 -2.093434 -1.693643 2.392958 
